<?xml version="1.0" encoding="utf-8"?>
<!-- Generator: Adobe Illustrator 23.0.5, SVG Export Plug-In . SVG Version: 6.00 Build 0)  -->
<svg version="1.1" xmlns="http://www.w3.org/2000/svg" xmlns:xlink="http://www.w3.org/1999/xlink" x="0px" y="0px"
	 viewBox="0 0 1024 1024" style="enable-background:new 0 0 1024 1024;" xml:space="preserve">
<style type="text/css">
	.st0{display:none;}
	.st1{display:inline;}
	.st2{fill:url(#SVGID_1_);}
	.st3{fill:url(#SVGID_2_);}
	.st4{display:inline;fill:url(#SVGID_3_);}
	.st5{display:inline;fill:url(#SVGID_4_);}
	.st6{opacity:0.2;}
	.st7{fill:#FFFFFF;}
	.st8{opacity:3.000000e-02;}
	.st9{fill:url(#SVGID_5_);}
	.st10{fill:url(#SVGID_6_);}
	.st11{fill:url(#SVGID_7_);}
	.st12{fill:url(#SVGID_8_);}
	.st13{display:inline;fill:#FFFFFF;}
	.st14{display:inline;opacity:0.2;}
	.st15{fill:url(#SVGID_9_);}
	.st16{fill:url(#SVGID_10_);}
	.st17{fill:url(#SVGID_11_);}
	.st18{display:none;fill:#606060;}
	.st19{display:none;fill:#E06161;}
	.st20{display:inline;fill:#2F2F2F;}
	.st21{fill:url(#SVGID_12_);}
	.st22{fill:url(#SVGID_13_);}
	.st23{opacity:0.3;}
</style>
<g id="Fondos" class="st0">
	<g class="st1">
		<linearGradient id="SVGID_1_" gradientUnits="userSpaceOnUse" x1="512" y1="1023.5" x2="512" y2="0.5">
			<stop  offset="0" style="stop-color:#1C1C1C"/>
			<stop  offset="1" style="stop-color:#2F2F2F"/>
		</linearGradient>
		<rect x="0.5" y="0.5" class="st2" width="1023" height="1023"/>
		<path d="M1023,1v1022H1V1H1023 M1024,0H0v1024h1024V0L1024,0z"/>
	</g>
</g>
<g id="Capa_1" class="st0">
	<g>
		<linearGradient id="SVGID_2_" gradientUnits="userSpaceOnUse" x1="189.5399" y1="510.0917" x2="803.5987" y2="510.0917">
			<stop  offset="0" style="stop-color:#FFFFFF"/>
			<stop  offset="1" style="stop-color:#000000"/>
		</linearGradient>
		<path style="display:inline;fill:url(#SVGID_2_);" d="M723,659c0,0-229,194-326,48s131-515,213-489c0,0,69,16,7,144
			S456,528,456,528h139c0,0,233-120.2,206.5-269.6s-266.9-59.9-266.9-59.9s-306.4,106.8-343,433.7S617,871,723,659L723,659z"/>
		<linearGradient id="SVGID_3_" gradientUnits="userSpaceOnUse" x1="45" y1="448.9224" x2="979" y2="448.9224">
			<stop  offset="0" style="stop-color:#FFFFFF"/>
			<stop  offset="1" style="stop-color:#000000"/>
		</linearGradient>
		<path class="st4" d="M914.2,368.3c41.6,19.6,61.7,49,64.4,80.1c3.5,39.3-19.9,68.8-70,88.4c-50.1,19.6-109,32.4-176.5,38.3
			c-105.5,9.3-211.9,7.4-319.4-5.8c-107.5-13.2-194.7-36.3-261.8-69.4C83.9,466.7,48.6,430.6,45.2,391.6
			c-1.7-19.8,9.8-35.9,34.6-48.3c24.8-12.4,56.9-20.3,96.1-23.8c47-4.1,93-3.2,138.3,2.7c61.7,8.3,111.9,21.2,150.7,38.7
			c38.8,17.5,69,38.2,90.5,62.1c12.4,13.8,22.8,32.3,31.2,55.3c-10.2-15.2-22.4-27.1-36.6-35.5c-17.2-10.1-43.9-19.3-80.3-27.4
			c-36.4-8.1-81.8-14.1-136.4-17.8c-54.6-3.7-105.4-3.7-152.5,0c-19.9,1.6-35.5,4.7-46.5,9.2c-11,4.6-16.3,9.7-15.7,15.3
			c1.1,11.3,25.8,24.5,75.4,32.4c250.7,40.1,396.6,35.1,396.6,35.1c42-1.6,76.5-3.5,103.5-5.9c48.2-4.3,86.4-12.8,114.4-25.6
			c28-12.8,41.3-27.8,39.8-45c-1.5-16.5-13.8-32.1-37.2-46.7c-23.3-14.7-63.3-30.5-119.9-47.6C691.1,318.9,810,319.1,914.2,368.3z"
			/>
	</g>
	<g class="st1">
		<g class="st6">
			<path d="M687.2,680.9c-106,212-568,300-531.4-26.9c6.3-56.7,20.8-106.8,40.4-150.8c3.4,3,6.9,5.9,10.5,8.9
				c37.5,30.7,83.3,58.8,134.2,82.7c-7.4,51.8-2.8,99.3,20.3,134.1C458.2,874.9,687.2,680.9,687.2,680.9z M293.4,388.9
				c27,19.5,59.5,38,95.7,54.5C444.4,325.5,530.2,226,574.2,239.9c0,0,69,16,7,144c-21.4,44.2-47.3,77.7-71.9,102.6
				c40.1,11,79.7,18.5,116,22c66.7-47.7,157.6-131.9,140.5-228.2c-26.5-149.4-266.9-59.9-266.9-59.9S376.7,263,277.4,376.6
				C282.4,380.7,287.7,384.8,293.4,388.9z M144.1,341.6C130.2,430.5,274.7,549,466.9,606.3c69.4,20.7,135.5,30.6,192.2,30.6
				c100.5,0,171.9-30.9,180.8-87.7c6.6-42-22.3-90.6-74.8-136.3c26.6,26.6,40.3,52.8,36.7,75.5c-5.8,37.2-56.7,56.6-131.1,56.6
				c-53.5,0-119.3-10.1-189.1-30.9c-166.8-49.7-294-141.9-284-205.9c3.7-23.7,25.7-40.1,60.3-49
				C193.7,270.2,150.8,298.5,144.1,341.6z"/>
		</g>
		<g>
			<g>
				<radialGradient id="SVGID_4_" cx="643.6167" cy="483.6201" r="464.0388" gradientUnits="userSpaceOnUse">
					<stop  offset="0" style="stop-color:#DCE35B"/>
					<stop  offset="0.3669" style="stop-color:#A3D254"/>
					<stop  offset="1" style="stop-color:#45B649"/>
				</radialGradient>
				<path style="fill:url(#SVGID_4_);" d="M707.2,660.9c-106,212-568,300-531.4-26.9c6.3-56.7,20.8-106.8,40.4-150.8
					c3.4,3,6.9,5.9,10.5,8.9c37.5,30.7,83.3,58.8,134.2,82.7c-7.4,51.8-2.8,99.3,20.3,134.1C478.2,854.9,707.2,660.9,707.2,660.9z"
					/>
			</g>
			<g>
				<radialGradient id="SVGID_5_" cx="729.35" cy="174.1199" r="398.8766" gradientUnits="userSpaceOnUse">
					<stop  offset="0" style="stop-color:#DCE35B"/>
					<stop  offset="0.3669" style="stop-color:#A3D254"/>
					<stop  offset="1" style="stop-color:#45B649"/>
				</radialGradient>
				<path class="st9" d="M313.4,368.9c27,19.5,59.5,38,95.7,54.5C464.4,305.5,550.2,206,594.2,219.9c0,0,69,16,7,144
					c-21.4,44.2-47.3,77.7-71.9,102.6c40.1,11,79.7,18.5,116,22c66.7-47.7,157.6-131.9,140.5-228.2
					c-26.5-149.4-266.9-59.9-266.9-59.9S396.7,243,297.4,356.6C302.4,360.7,307.7,364.8,313.4,368.9z"/>
			</g>
		</g>
		<g>
			<radialGradient id="SVGID_6_" cx="777.6918" cy="239.5405" r="481.8727" gradientUnits="userSpaceOnUse">
				<stop  offset="0" style="stop-color:#DCE35B"/>
				<stop  offset="0.3669" style="stop-color:#A3D254"/>
				<stop  offset="1" style="stop-color:#45B649"/>
			</radialGradient>
			<path class="st10" d="M164.1,321.6C150.2,410.5,294.7,529,486.9,586.3c69.4,20.7,135.5,30.6,192.2,30.6
				c100.5,0,171.9-30.9,180.8-87.7c6.6-42-22.3-90.6-74.8-136.3c26.6,26.6,40.3,52.8,36.7,75.5c-5.8,37.2-56.7,56.6-131.1,56.6
				c-53.5,0-119.3-10.1-189.1-30.9c-166.8-49.7-294-141.9-284-205.9c3.7-23.7,25.7-40.1,60.3-49
				C213.7,250.2,170.8,278.5,164.1,321.6z"/>
		</g>
	</g>
</g>
<g id="Segundo_intento">
	<g class="st0">
		<g class="st14">
			<path d="M687.2,680.9c-106,212-568,300-531.4-26.9c6.3-56.7,20.8-106.8,40.4-150.8c3.4,3,6.9,5.9,10.5,8.9
				c37.5,30.7,83.3,58.8,134.2,82.7c-7.4,51.8-2.8,99.3,20.3,134.1C458.2,874.9,687.2,680.9,687.2,680.9z M293.4,388.9
				c27,19.5,59.5,38,95.7,54.5C444.4,325.5,530.2,226,574.2,239.9c0,0,69,16,7,144c-21.4,44.2-47.3,77.7-71.9,102.6
				c40.1,11,79.7,18.5,116,22c66.7-47.7,157.6-131.9,140.5-228.2c-26.5-149.4-266.9-59.9-266.9-59.9S376.7,263,277.4,376.6
				C282.4,380.7,287.7,384.8,293.4,388.9z M144.1,341.6C130.2,430.5,274.7,549,466.9,606.3c69.4,20.7,135.5,30.6,192.2,30.6
				c100.5,0,171.9-30.9,180.8-87.7c6.6-42-22.3-90.6-74.8-136.3c26.6,26.6,40.3,52.8,36.7,75.5c-5.8,37.2-56.7,56.6-131.1,56.6
				c-53.5,0-119.3-10.1-189.1-30.9c-166.8-49.7-294-141.9-284-205.9c3.7-23.7,25.7-40.1,60.3-49
				C193.7,270.2,150.8,298.5,144.1,341.6z"/>
		</g>
		<g class="st1">
			<g>
				<radialGradient id="SVGID_7_" cx="643.6167" cy="483.6201" r="464.0388" gradientUnits="userSpaceOnUse">
					<stop  offset="0" style="stop-color:#DCE35B"/>
					<stop  offset="0.3669" style="stop-color:#A3D254"/>
					<stop  offset="1" style="stop-color:#45B649"/>
				</radialGradient>
				<path class="st11" d="M707.2,660.9c-106,212-568,300-531.4-26.9c6.3-56.7,20.8-106.8,40.4-150.8c3.4,3,6.9,5.9,10.5,8.9
					c37.5,30.7,83.3,58.8,134.2,82.7c-7.4,51.8-2.8,99.3,20.3,134.1C478.2,854.9,707.2,660.9,707.2,660.9z"/>
			</g>
			<g>
				<radialGradient id="SVGID_8_" cx="729.35" cy="174.1199" r="398.8766" gradientUnits="userSpaceOnUse">
					<stop  offset="0" style="stop-color:#DCE35B"/>
					<stop  offset="0.3669" style="stop-color:#A3D254"/>
					<stop  offset="1" style="stop-color:#45B649"/>
				</radialGradient>
				<path class="st12" d="M313.4,368.9c27,19.5,59.5,38,95.7,54.5C464.4,305.5,550.2,206,594.2,219.9c0,0,69,16,7,144
					c-21.4,44.2-47.3,77.7-71.9,102.6c40.1,11,79.7,18.5,116,22c66.7-47.7,157.6-131.9,140.5-228.2
					c-26.5-149.4-266.9-59.9-266.9-59.9S396.7,243,297.4,356.6C302.4,360.7,307.7,364.8,313.4,368.9z"/>
			</g>
		</g>
		<g class="st1">
			<radialGradient id="SVGID_9_" cx="777.6918" cy="239.5405" r="481.8727" gradientUnits="userSpaceOnUse">
				<stop  offset="0" style="stop-color:#DCE35B"/>
				<stop  offset="0.3669" style="stop-color:#A3D254"/>
				<stop  offset="1" style="stop-color:#45B649"/>
			</radialGradient>
			<path class="st15" d="M164.1,321.6C150.2,410.5,294.7,529,486.9,586.3c69.4,20.7,135.5,30.6,192.2,30.6
				c100.5,0,171.9-30.9,180.8-87.7c6.6-42-22.3-90.6-74.8-136.3c26.6,26.6,40.3,52.8,36.7,75.5c-5.8,37.2-56.7,56.6-131.1,56.6
				c-53.5,0-119.3-10.1-189.1-30.9c-166.8-49.7-294-141.9-284-205.9c3.7-23.7,25.7-40.1,60.3-49
				C213.7,250.2,170.8,278.5,164.1,321.6z"/>
		</g>
	</g>
</g>
<g id="Cuarto_intento">
	<rect y="0" class="st18" width="1024" height="1024"/>
	<rect x="116" y="117" class="st19" width="792" height="721"/>
	<rect x="47" y="12" class="st18" width="691" height="100"/>
	<g>
		<g class="st0">
			<path class="st20" d="M40.5,983.5V240.3l0-0.4C49.1,128.1,144,40.5,256.6,40.5h727v727c0,57.5-22.5,111.7-63.5,152.6
				s-95.1,63.5-152.6,63.5H40.5z"/>
			<path class="st20" d="M973,51v716.4C973,880.5,880.5,973,767.4,973H51V240.7C59.1,135,148.8,51,256.6,51H973 M994.1,29.9H973
				H256.6c-57.3,0-112.2,21.6-154.5,60.8C59.9,129.8,34.3,182.5,30,239.1l-0.1,0.8v0.8V973v21.1H51h716.4c30.5,0,60.1-6,88.1-17.9
				c27-11.5,51.2-27.8,72-48.7c20.8-20.8,37.2-45.1,48.7-72c11.9-28,17.9-57.6,17.9-88.1V51V29.9L994.1,29.9z"/>
		</g>
		<g>
			<g>
				<linearGradient id="SVGID_10_" gradientUnits="userSpaceOnUse" x1="929.0778" y1="929.0778" x2="600.9373" y2="600.9373">
					<stop  offset="0" style="stop-color:#B8B8B8"/>
					<stop  offset="3.082472e-02" style="stop-color:#C1C1C1"/>
					<stop  offset="0.1291" style="stop-color:#D8D8D8"/>
					<stop  offset="0.243" style="stop-color:#E9E9E9"/>
					<stop  offset="0.3803" style="stop-color:#F6F6F6"/>
					<stop  offset="0.5651" style="stop-color:#FDFDFD"/>
					<stop  offset="1" style="stop-color:#FFFFFF"/>
				</linearGradient>
				<path class="st16" d="M175.6,973h591.8C880.5,973,973,880.5,973,767.4V175.6L175.6,973z"/>
			</g>
			<linearGradient id="SVGID_11_" gradientUnits="userSpaceOnUse" x1="11.779" y1="33.6593" x2="543.2041" y2="538.6014">
				<stop  offset="1.858442e-07" style="stop-color:#74B452"/>
				<stop  offset="1" style="stop-color:#DCE166"/>
			</linearGradient>
			<path class="st17" d="M51.6,240.8C59.7,135,148.8,51,256.6,51h594.1L660.9,240.8H51.6z M355.9,545.8L545.7,356H51v189.8H355.9z
				 M51,661.1v189.6l189.6-189.6H51z"/>
		</g>
	</g>
	<rect x="81" y="806" class="st18" width="389" height="100"/>
</g>
</svg>
