<?xml version="1.0" encoding="utf-8"?>
<!-- Generator: Adobe Illustrator 23.0.5, SVG Export Plug-In . SVG Version: 6.00 Build 0)  -->
<svg version="1.1" xmlns="http://www.w3.org/2000/svg" xmlns:xlink="http://www.w3.org/1999/xlink" x="0px" y="0px"
	 viewBox="0 0 720 596.37" style="enable-background:new 0 0 720 596.37;" xml:space="preserve">
<style type="text/css">
	.st0{display:none;}
	.st1{display:inline;}
	.st2{fill:url(#SVGID_1_);}
	.st3{fill:url(#SVGID_2_);}
	.st4{fill:url(#SVGID_3_);}
	.st5{fill:url(#SVGID_4_);}
	.st6{fill:#FFFFFF;}
	.st7{fill:#121212;}
	.st8{fill:url(#SVGID_5_);}
	.st9{fill:url(#SVGID_6_);}
	.st10{fill:url(#SVGID_7_);}
	.st11{fill:url(#SVGID_8_);}
	.st12{fill:url(#SVGID_9_);}
	.st13{fill:url(#SVGID_10_);}
	.st14{fill:url(#SVGID_11_);}
	.st15{fill:url(#SVGID_12_);}
	.st16{fill:url(#SVGID_13_);}
	.st17{fill:url(#SVGID_14_);}
	.st18{fill:url(#SVGID_15_);}
	.st19{fill:url(#SVGID_16_);}
	.st20{fill:url(#SVGID_17_);}
	.st21{fill:url(#SVGID_18_);}
	.st22{fill:url(#SVGID_19_);}
	.st23{fill:url(#SVGID_20_);}
	.st24{fill:url(#SVGID_21_);}
	.st25{fill:url(#SVGID_22_);}
	.st26{fill:url(#SVGID_23_);}
	.st27{fill:url(#SVGID_24_);}
	.st28{opacity:0.1;}
	.st29{opacity:0.05;}
	.st30{fill:url(#SVGID_25_);}
	.st31{fill:url(#SVGID_26_);}
	.st32{fill:url(#SVGID_27_);}
	.st33{fill:#1A1A1A;}
</style>
<g id="Fondos" class="st0">
	<g class="st1">
		<rect x="0.5" y="-61.31" class="st7" width="719" height="719"/>
		<path d="M719-60.81v718H1v-718H719 M720-61.81H0v720h720V-61.81L720-61.81z"/>
	</g>
</g>
<g id="Nombre_horizontal">
</g>
<g id="Logo_y_nombbre_horizontal">
</g>
<g id="Logo_y_nombre_central">
</g>
<g id="Foto_de_Perfil">
	<g>
		<g>
			<radialGradient id="SVGID_1_" cx="358.6992" cy="7.4055" r="742.2723" gradientUnits="userSpaceOnUse">
				<stop  offset="0.27" style="stop-color:#DAE15C"/>
				<stop  offset="1" style="stop-color:#47B449"/>
			</radialGradient>
			<path class="st2" d="M695.2,296.5L420.13,571.57c-33.07,33.07-87.18,33.07-120.25,0L24.8,296.5
				c-33.07-33.07-33.07-87.18,0-120.25L201.05,0c21.18,21.39,21.12,55.9-0.2,77.22l-99.03,99.03c-33.07,33.07-33.07,87.18,0,120.25
				l198.05,198.05c33.07,33.07,87.18,33.07,120.25,0L618.18,296.5c33.07-33.07,33.07-87.18,0-120.25L515.2,73.26
				c-17.54-21.5-16.28-53.22,3.76-73.26L695.2,176.25C728.27,209.31,728.27,263.43,695.2,296.5z"/>
		</g>
		<g>
			<path class="st6" d="M334.17,125.45l-85.09,85.09c-14.21,14.21-14.21,37.45,0,51.66l85.09,85.09c14.21,14.21,37.45,14.21,51.66,0
				l85.09-85.09c14.21-14.21,14.21-37.45,0-51.66l-85.09-85.09C371.62,111.25,348.38,111.25,334.17,125.45z"/>
		</g>
	</g>
</g>
<g id="Construcción_Logo" class="st0">
</g>
</svg>
